# xmcd
#
# Track frame offsets:
# 150
# 17797
# 31871
# 47550
# 62480
# 76883
# 86528
# 98876
# 105557
# 130864
# 146656
# 158254
# 171131
# 187479
#
# Disc length: 2694 seconds
#
#
# Revision: 2
# Processed by: cddbd v1.5.2PL0 Copyright (c) Steve Scherf et al.
# Submitted via: FreeRIP 2.951 
#
DISCID=ab0a840e
DTITLE=João Bosco e Vinicius - Acústico No Bar
DYEAR=2003
DGENRE=Sertanejo
TTITLE0=Tatuagem
TTITLE1=Magia E Mistério
TTITLE2=Quero Provar Que Te Amo
TTITLE3=Hoje Eu Quero Te Amar
TTITLE4=Faz De Conta
TTITLE5=Luz Da Minha Vida
TTITLE6=Avião Das Nove
TTITLE7=Memória
TTITLE8=Caçador De Corações
TTITLE9=Pout Porri-Pagode Em Brasília-Pagode-Falou E Disse
TTITLE10=Saudade
TTITLE11=De Igual Pra Igual
TTITLE12=Esse Amor Que Mata
TTITLE13=Não Precissa Perdão
EXTD=D
EXTT0=
EXTT1=
EXTT2=
EXTT3=
EXTT4=
EXTT5=
EXTT6=
EXTT7=
EXTT8=
EXTT9=
EXTT10=
EXTT11=
EXTT12=
EXTT13=
PLAYORDER=
